Coordinates
version=1
nRows=16
nColumns=36
inDegrees=yes

Units are S.I. units (second, meters, Newtons, ...)
If the header above contains a line with 'inDegrees', this indicates whether rotational values are in degrees (yes) or radians (no).

endheader
time	pelvis_tilt	pelvis_list	pelvis_rotation	pelvis_tx	pelvis_ty	pelvis_tz	hip_flexion_r	hip_adduction_r	hip_rotation_r	knee_angle_r	knee_angle_r_beta	ankle_angle_r	subtalar_angle_r	mtp_angle_r	hip_flexion_l	hip_adduction_l	hip_rotation_l	knee_angle_l	knee_angle_l_beta	ankle_angle_l	subtalar_angle_l	mtp_angle_l	lumbar_extension	lumbar_bending	lumbar_rotation	arm_flex_r	arm_add_r	arm_rot_r	elbow_flex_r	pro_sup_r	arm_flex_l	arm_add_l	arm_rot_l	elbow_flex_l	pro_sup_l
      7.31666670	      1.32743865	     -2.48724036	      2.96331184	      1.07188103	      0.95454200	      0.05524423	     50.12693968	     -6.64682726	     -4.18944978	     29.90029311	      0.52185856	     -8.85959475	      1.45015493	     -7.49999987	     16.78633318	      3.79945006	     -0.58036830	     31.48931492	      0.54959222	     13.04013609	    -13.46523536	     -7.49999987	    -21.74748496	     -2.22275344	     -4.43356509	     50.17613012	      1.76640031	     63.68934165	    123.69997160	     91.81491076	     59.75541736	    -16.89476436	     55.10538218	    130.64860561	     93.97736927
      7.33333330	      0.99691871	     -1.85203382	      3.09773849	      1.06566948	      0.95377914	      0.05198025	     51.05174243	     -7.45778111	     -3.61211759	     30.22306166	      0.52749194	     -9.46742325	      1.56969562	     -7.49999987	     18.43219092	      4.71515582	     -0.37717437	     33.44303956	      0.58369115	     13.30873053	    -14.21828616	     -7.49999987	    -22.62465736	     -2.82921365	     -4.39209400	     51.38543901	      1.22414958	     64.74941725	    123.58651569	     92.02027630	     60.46838461	    -17.01713438	     55.44839415	    130.22570832	     93.99438958
      7.35000000	      0.91554821	     -1.42866041	      3.15346534	      1.06538442	      0.94822058	      0.05256106	     51.41888830	     -8.00332332	     -3.14460781	     30.23118640	      0.52763374	    -10.04087024	      1.77781702	     -7.49999987	     19.74898507	      5.37647661	     -0.20988337	     35.29098051	      0.61594381	     13.63360600	    -14.85613753	     -7.49999987	    -23.72238813	     -3.27114704	     -4.06592766	     52.61318261	      1.15339792	     64.89380509	    123.36747201	     92.05082958	     61.31000973	    -16.88342950	     55.53278567	    130.21217016	     93.96418285
      7.36666670	      0.71545017	     -1.02208549	      3.24283106	      1.05885206	      0.94771940	      0.05552716	     51.67203149	     -8.50317589	     -2.64412001	     29.95628031	      0.52283572	    -10.67699039	      2.20230213	     -7.49999987	     21.06620530	      6.02162503	      0.02317467	     36.71972633	      0.64088012	     13.04440174	    -15.75509056	     -7.49999987	    -24.89082120	     -3.76637041	     -3.93009026	     54.06025455	      1.43697980	     64.83883424	    122.26517194	     92.24529297	     62.77364378	    -16.88146459	     56.91292070	    130.03178029	     94.10756649
      7.38333330	      0.39667056	     -1.00170927	      3.10489168	      1.06438722	      0.94484695	      0.05962997	     51.60321802	     -8.45792056	     -2.36615841	     29.17653171	      0.50922654	    -11.01820902	      2.61592032	     -7.49999987	     21.71301512	      5.99349857	      0.04462459	     37.32738020	      0.65148569	     12.77960754	    -15.89720985	     -7.49999987	    -25.63745205	     -3.98345457	     -3.44483151	     54.32295295	      1.63229303	     64.43599841	    121.11172004	     92.21334864	     62.87550256	    -17.29922791	     57.79290526	    129.45787398	     94.10366106
      7.40000000	      0.01853260	     -0.86738282	      3.07881755	      1.05778916	      0.94097102	      0.05629549	     51.61827784	     -8.72151408	     -2.05070950	     28.39839448	      0.49564549	    -11.16628970	      3.35299603	     -7.49999987	     22.53776243	      6.19594368	      0.19425045	     37.95974481	      0.66252253	     12.22811226	    -16.07669321	     -7.49999987	    -26.36369804	     -4.35395702	     -3.28130410	     54.54248925	      1.75056710	     66.36035518	    121.44423985	     92.45723126	     63.73984600	    -17.47882318	     59.58346481	    128.74707092	     94.09602061
      7.41666670	     -0.48588085	     -0.76089632	      2.86303412	      1.05758296	      0.93495864	      0.05676755	     51.70559587	     -8.78026444	     -1.63901311	     27.36786106	      0.47765928	    -11.23743098	      4.24937285	     -7.49999987	     23.46104723	      6.33237003	      0.29905361	     38.51638996	      0.67223782	     11.92711919	    -16.13859919	     -7.49999987	    -26.95146849	     -4.61202870	     -2.82602469	     54.90062176	      1.05368607	     65.43516261	    120.64138654	     91.36364744	     64.21968280	    -17.30359463	     60.12008341	    128.38261800	     92.62070478
      7.43333330	     -1.08428009	     -0.66591089	      2.86284677	      1.05016813	      0.92618665	      0.05975828	     52.41153915	     -8.93776638	     -0.95435374	     27.34485751	      0.47725780	    -11.31320778	      4.46506400	     -7.49999987	     25.22990119	      6.49199732	      0.33289863	     39.93925893	      0.69707157	     12.00329514	    -16.27280249	     -7.49999987	    -27.75288736	     -4.88764980	     -2.83281579	     56.00410049	      0.91338193	     64.77639458	    120.52892814	     90.98777183	     65.48293694	    -17.42669784	     59.44003936	    128.03039627	     92.11431517
      7.45000000	     -2.09421247	     -0.71430144	      2.84792847	      1.05039768	      0.92261274	      0.06010928	     53.45245354	     -8.89332085	     -0.29043082	     27.48478872	      0.47970006	    -11.51802848	      4.31161460	     -7.49999987	     27.09829440	      6.59803605	      0.70558728	     41.08873031	      0.71713363	     12.17687110	    -16.56516548	     -7.49999987	    -27.97422007	     -5.05000285	     -2.75477042	     56.21214095	      1.21157472	     65.26717911	    120.91984751	     90.01864213	     66.00047118	    -17.44488643	     59.30473259	    127.99982553	     90.88940745
      7.46666670	     -3.19498277	     -0.85103563	      2.91703280	      1.04868218	      0.91348751	      0.05966016	     54.87526560	     -8.79010262	      0.50417737	     27.98091912	      0.48835917	    -11.71047849	      3.75259532	     -7.49999987	     29.29156217	      6.60339711	      0.95797840	     42.62523381	      0.74395067	     12.71207674	    -16.61437113	     -7.49999987	    -27.80890621	     -5.13306260	     -2.60466054	     56.45757854	      1.52540793	     65.17124480	    120.98568325	     94.13816429	     66.63153843	    -17.25363258	     60.15661292	    127.58386650	     91.57998791
      7.48333330	     -3.73343638	     -0.70469163	      3.35344046	      1.03707240	      0.90717138	      0.05789118	     56.14984565	     -9.18898935	      0.96956985	     28.46460135	      0.49680101	    -12.22586665	      3.81519676	     -7.49999987	     31.29413771	      7.04271456	      1.18299042	     44.24600558	      0.77223848	     12.78698466	    -16.83440629	     -7.49999987	    -28.89080149	     -5.12282098	     -2.97465387	     58.07013382	      0.76906032	     64.41832899	    120.60148661	     94.09129936	     67.97681461	    -17.40560099	     59.53085452	    126.81677899	     91.54592919
      7.50000000	     -4.93445684	     -0.94467353	      3.64998270	      1.03521289	      0.90321645	      0.06381323	     57.79441868	     -9.04523731	      1.48049247	     28.66962740	      0.50037939	    -12.51381790	      3.41779663	     -7.49999987	     33.82424814	      7.01029525	      1.65313903	     45.77939653	      0.79900120	     12.69851316	    -17.03691972	     -7.49999987	    -28.82464696	     -5.16350918	     -2.85652782	     58.55435959	      0.41034642	     64.36887075	    120.25905913	     94.04576686	     68.76866812	    -17.34587439	     59.34278771	    125.54102141	     91.47126684
      7.51666670	     -5.81200962	     -1.02046459	      4.13708461	      1.02517095	      0.89830302	      0.06174764	     59.15688716	     -9.22852376	      1.97648523	     29.20346068	      0.50969654	    -12.88458041	      3.43404171	     -7.49999987	     36.05425503	      7.25917739	      2.04997774	     47.17771125	      0.82340639	     12.44125768	    -17.11213442	     -7.49999987	    -29.44843472	     -5.18361035	     -3.15112580	     59.59125160	      0.38987384	     65.72678904	    121.10670897	     94.13779256	     70.39771618	    -17.11317749	     59.81964149	    125.35203353	     91.41546770
      7.53333330	     -6.39862879	     -1.09503452	      4.52334006	      1.02426659	      0.89476365	      0.06180550	     59.95090958	     -9.36371137	      2.36443192	     29.13771965	      0.50854914	    -13.16491056	      3.84991821	     -7.49999987	     37.67739764	      7.42737370	      2.31820704	     48.31917515	      0.84332870	     12.21729816	    -16.97243424	     -7.49999987	    -30.21180608	     -5.10423525	     -3.25200654	     60.07229196	      1.14636810	     66.65561587	    121.29717966	     93.69455658	     70.91629323	    -16.88426094	     60.37524965	    124.70887289	     90.87817702
      7.55000000	     -7.23608323	     -1.04071496	      5.00816044	      1.01484270	      0.88916902	      0.05985571	     61.05889261	     -9.76104856	      2.82982798	     29.17636154	      0.50922357	    -13.29289652	      4.53459660	     -7.49999987	     39.73709796	      7.80673759	      2.44826128	     49.49647320	      0.86387643	     11.76993374	    -16.68215186	     -7.49999987	    -31.08677819	     -4.91002543	     -3.10821922	     61.58318512	      0.13188266	     68.13833106	    121.09110707	     93.76777324	     72.51905925	    -16.52204065	     61.65541269	    123.67964853	     90.92924510
      7.56666670	     -7.68283126	     -0.91459911	      5.15844364	      1.01985275	      0.88358220	      0.05819523	     61.19631109	    -10.02705051	      3.36284010	     28.65920095	      0.50019742	    -13.09089219	      4.86558214	     -7.49999987	     40.74350738	      8.08937637	      2.48668801	     50.29988499	      0.87789861	     11.46860331	    -16.44666780	     -7.49999987	    -32.09045921	     -4.76313853	     -3.17324923	     62.15111369	     -1.01487322	     67.80708520	    120.75517823	     93.74172786	     72.52345736	    -16.65366326	     61.71473027	    123.63695677	     90.93761424
